<?xml version="1.0" encoding="iso-8859-1"?>
<!-- Generator: Adobe Illustrator 19.0.0, SVG Export Plug-In . SVG Version: 6.00 Build 0)  -->
<svg xmlns="http://www.w3.org/2000/svg" xmlns:xlink="http://www.w3.org/1999/xlink" version="1.1" id="Capa_1" x="0px" y="0px" viewBox="0 0 512 512" style="enable-background:new 0 0 512 512;" xml:space="preserve" width="512px" height="512px">
<g>
	<g>
		<path d="M0,0v512h512V0H0z M482,482H30V130h452V482z M482,100H30V30h452V100z" fill="#000000"/>
	</g>
</g>
<g>
	<g>
		<rect x="60" y="50" width="30" height="30" fill="#000000"/>
	</g>
</g>
<g>
	<g>
		<rect x="110" y="50" width="30" height="30" fill="#000000"/>
	</g>
</g>
<g>
	<g>
		<rect x="160" y="50" width="30" height="30" fill="#000000"/>
	</g>
</g>
<g>
	<g>
		<polygon points="60,162.4 60,205.541 91.608,225.83 60,244.41 60,289.687 150.553,236.295 150.553,217.501   " fill="#000000"/>
	</g>
</g>
<g>
	<g>
		<rect x="170.84" y="241.85" width="32.889" height="39.3" fill="#000000"/>
	</g>
</g>
<g>
	<g>
		<rect x="170.84" y="170.3" width="32.889" height="39.3" fill="#000000"/>
	</g>
</g>
<g>
	<g>
		<rect x="217.61" y="281.14" width="75.39" height="36.31" fill="#000000"/>
	</g>
</g>
<g>
</g>
<g>
</g>
<g>
</g>
<g>
</g>
<g>
</g>
<g>
</g>
<g>
</g>
<g>
</g>
<g>
</g>
<g>
</g>
<g>
</g>
<g>
</g>
<g>
</g>
<g>
</g>
<g>
</g>
</svg>
